<svg width="403" height="72" viewBox="0 0 403 72" fill="none" xmlns="http://www.w3.org/2000/svg">
<path d="M34 2H2V55L15.3333 31.15H26L34 2Z" fill="#7300FF" stroke="#6A00FF" stroke-width="3" stroke-linecap="round" stroke-linejoin="round"/>
<g filter="url(#filter0_d_257_31)">
<path d="M46.1935 50V2.72727H63.0437C66.7215 2.72727 69.7683 3.39666 72.1843 4.73544C74.6003 6.07422 76.4084 7.90542 77.6087 10.229C78.809 12.5373 79.4091 15.1379 79.4091 18.0309C79.4091 20.9393 78.8013 23.5553 77.5856 25.8789C76.3853 28.1871 74.5695 30.0183 72.1381 31.3725C69.7222 32.7113 66.683 33.3807 63.0206 33.3807H51.4332V27.3331H62.3743C64.6979 27.3331 66.583 26.933 68.0295 26.1328C69.476 25.3172 70.5378 24.2093 71.2148 22.8089C71.8919 21.4086 72.2305 19.8159 72.2305 18.0309C72.2305 16.2459 71.8919 14.6609 71.2148 13.2759C70.5378 11.891 69.4683 10.8061 68.0064 10.0213C66.5599 9.23651 64.6518 8.8441 62.282 8.8441H53.326V50H46.1935ZM109.676 35.2965V14.5455H116.601V50H109.814V43.8601H109.445C108.629 45.7528 107.321 47.3301 105.521 48.592C103.736 49.8384 101.512 50.4616 98.8502 50.4616C96.5728 50.4616 94.5569 49.9615 92.8026 48.9613C91.0638 47.9457 89.6942 46.4453 88.694 44.4602C87.7091 42.4751 87.2167 40.0207 87.2167 37.0969V14.5455H94.1183V36.266C94.1183 38.6819 94.7877 40.6055 96.1265 42.0366C97.4653 43.4677 99.2042 44.1832 101.343 44.1832C102.636 44.1832 103.921 43.8601 105.198 43.2138C106.491 42.5675 107.56 41.5903 108.406 40.2823C109.268 38.9743 109.691 37.3124 109.676 35.2965ZM125.874 50V14.5455H132.545V20.1776H132.914C133.56 18.2694 134.699 16.7691 136.33 15.6765C137.977 14.5685 139.839 14.0146 141.916 14.0146C142.347 14.0146 142.855 14.0299 143.44 14.0607C144.04 14.0915 144.509 14.13 144.848 14.1761V20.7777C144.571 20.7008 144.078 20.6161 143.37 20.5238C142.663 20.4161 141.955 20.3622 141.247 20.3622C139.616 20.3622 138.161 20.7085 136.884 21.4009C135.622 22.078 134.622 23.0244 133.884 24.2401C133.145 25.4403 132.776 26.8099 132.776 28.3487V50H125.874ZM150.82 63.2955V14.5455H157.56V20.293H158.137C158.537 19.5543 159.114 18.7003 159.869 17.7308C160.623 16.7614 161.669 15.915 163.008 15.1918C164.347 14.4531 166.116 14.0838 168.317 14.0838C171.179 14.0838 173.733 14.8071 175.98 16.2536C178.227 17.7 179.989 19.7852 181.266 22.5089C182.559 25.2326 183.205 28.5103 183.205 32.342C183.205 36.1737 182.566 39.459 181.289 42.1982C180.012 44.9219 178.257 47.0224 176.026 48.4996C173.795 49.9615 171.248 50.6925 168.386 50.6925C166.232 50.6925 164.47 50.3308 163.1 49.6076C161.746 48.8844 160.684 48.038 159.915 47.0685C159.145 46.0991 158.553 45.2373 158.137 44.4833H157.722V63.2955H150.82ZM157.583 32.2727C157.583 34.7656 157.945 36.9508 158.668 38.8281C159.391 40.7055 160.438 42.1751 161.807 43.2369C163.177 44.2833 164.854 44.8065 166.839 44.8065C168.901 44.8065 170.625 44.2602 172.01 43.1676C173.395 42.0597 174.441 40.5593 175.149 38.6665C175.872 36.7738 176.234 34.6425 176.234 32.2727C176.234 29.9337 175.88 27.8332 175.172 25.9712C174.48 24.1093 173.433 22.6397 172.033 21.5625C170.648 20.4853 168.917 19.9467 166.839 19.9467C164.839 19.9467 163.146 20.4622 161.761 21.4933C160.392 22.5243 159.353 23.9631 158.645 25.8097C157.937 27.6562 157.583 29.8106 157.583 32.2727ZM197.839 2.72727V50H190.937V2.72727H197.839ZM222.404 50.7156C218.911 50.7156 215.903 49.9692 213.379 48.4766C210.871 46.9685 208.932 44.8526 207.562 42.1289C206.208 39.3898 205.531 36.1813 205.531 32.5035C205.531 28.8719 206.208 25.6712 207.562 22.9013C208.932 20.1314 210.84 17.9693 213.287 16.4151C215.749 14.8609 218.627 14.0838 221.92 14.0838C223.92 14.0838 225.859 14.4147 227.737 15.0763C229.614 15.738 231.299 16.7768 232.792 18.1925C234.284 19.6082 235.461 21.4471 236.323 23.7092C237.185 25.9558 237.616 28.6873 237.616 31.9034V34.3501H209.432V29.1797H230.853C230.853 27.3639 230.483 25.7558 229.745 24.3555C229.006 22.9397 227.967 21.8241 226.629 21.0085C225.305 20.1929 223.751 19.7852 221.966 19.7852C220.027 19.7852 218.334 20.2622 216.888 21.2163C215.457 22.1549 214.349 23.386 213.564 24.9094C212.795 26.4175 212.41 28.0563 212.41 29.826V33.8654C212.41 36.2352 212.825 38.2511 213.656 39.913C214.503 41.5749 215.68 42.8445 217.188 43.7216C218.696 44.5833 220.458 45.0142 222.474 45.0142C223.782 45.0142 224.974 44.8295 226.051 44.4602C227.129 44.0755 228.06 43.5062 228.844 42.7521C229.629 41.9981 230.229 41.0671 230.645 39.9592L237.177 41.1364C236.654 43.0599 235.715 44.7449 234.361 46.1914C233.022 47.6225 231.337 48.7382 229.306 49.5384C227.29 50.3232 224.99 50.7156 222.404 50.7156ZM240.195 8.86719V2.72727H276.781V8.86719H262.031V50H254.922V8.86719H240.195ZM301.946 35.2965V14.5455H308.871V50H302.085V43.8601H301.716C300.9 45.7528 299.592 47.3301 297.792 48.592C296.007 49.8384 293.783 50.4616 291.121 50.4616C288.843 50.4616 286.827 49.9615 285.073 48.9613C283.334 47.9457 281.965 46.4453 280.964 44.4602C279.98 42.4751 279.487 40.0207 279.487 37.0969V14.5455H286.389V36.266C286.389 38.6819 287.058 40.6055 288.397 42.0366C289.736 43.4677 291.475 44.1832 293.614 44.1832C294.906 44.1832 296.191 43.8601 297.468 43.2138C298.761 42.5675 299.83 41.5903 300.677 40.2823C301.539 38.9743 301.962 37.3124 301.946 35.2965ZM318.698 50V2.72727H325.6V20.293H326.016C326.416 19.5543 326.993 18.7003 327.747 17.7308C328.501 16.7614 329.547 15.915 330.886 15.1918C332.225 14.4531 333.994 14.0838 336.195 14.0838C339.057 14.0838 341.612 14.8071 343.858 16.2536C346.105 17.7 347.867 19.7852 349.144 22.5089C350.437 25.2326 351.083 28.5103 351.083 32.342C351.083 36.1737 350.444 39.459 349.167 42.1982C347.89 44.9219 346.136 47.0224 343.904 48.4996C341.673 49.9615 339.126 50.6925 336.264 50.6925C334.11 50.6925 332.348 50.3308 330.978 49.6076C329.624 48.8844 328.562 48.038 327.793 47.0685C327.023 46.0991 326.431 45.2373 326.016 44.4833H325.438V50H318.698ZM325.462 32.2727C325.462 34.7656 325.823 36.9508 326.546 38.8281C327.27 40.7055 328.316 42.1751 329.686 43.2369C331.055 44.2833 332.733 44.8065 334.718 44.8065C336.78 44.8065 338.503 44.2602 339.888 43.1676C341.273 42.0597 342.319 40.5593 343.027 38.6665C343.751 36.7738 344.112 34.6425 344.112 32.2727C344.112 29.9337 343.758 27.8332 343.05 25.9712C342.358 24.1093 341.311 22.6397 339.911 21.5625C338.526 20.4853 336.795 19.9467 334.718 19.9467C332.717 19.9467 331.024 20.4622 329.639 21.4933C328.27 22.5243 327.231 23.9631 326.523 25.8097C325.815 27.6562 325.462 29.8106 325.462 32.2727ZM374.113 50.7156C370.62 50.7156 367.612 49.9692 365.088 48.4766C362.58 46.9685 360.641 44.8526 359.271 42.1289C357.917 39.3898 357.24 36.1813 357.24 32.5035C357.24 28.8719 357.917 25.6712 359.271 22.9013C360.641 20.1314 362.549 17.9693 364.996 16.4151C367.458 14.8609 370.336 14.0838 373.629 14.0838C375.629 14.0838 377.568 14.4147 379.445 15.0763C381.323 15.738 383.008 16.7768 384.501 18.1925C385.993 19.6082 387.17 21.4471 388.032 23.7092C388.894 25.9558 389.325 28.6873 389.325 31.9034V34.3501H361.141V29.1797H382.562C382.562 27.3639 382.192 25.7558 381.454 24.3555C380.715 22.9397 379.676 21.8241 378.338 21.0085C377.014 20.1929 375.46 19.7852 373.675 19.7852C371.736 19.7852 370.043 20.2622 368.597 21.2163C367.166 22.1549 366.058 23.386 365.273 24.9094C364.503 26.4175 364.119 28.0563 364.119 29.826V33.8654C364.119 36.2352 364.534 38.2511 365.365 39.913C366.212 41.5749 367.389 42.8445 368.897 43.7216C370.405 44.5833 372.167 45.0142 374.183 45.0142C375.491 45.0142 376.683 44.8295 377.76 44.4602C378.838 44.0755 379.769 43.5062 380.553 42.7521C381.338 41.9981 381.938 41.0671 382.354 39.9592L388.886 41.1364C388.363 43.0599 387.424 44.7449 386.07 46.1914C384.731 47.6225 383.046 48.7382 381.015 49.5384C378.999 50.3232 376.699 50.7156 374.113 50.7156Z" fill="white"/>
</g>
<defs>
<filter id="filter0_d_257_31" x="46.1935" y="2.72729" width="356.131" height="68.5681" filterUnits="userSpaceOnUse" color-interpolation-filters="sRGB">
<feFlood flood-opacity="0" result="BackgroundImageFix"/>
<feColorMatrix in="SourceAlpha" type="matrix" values="0 0 0 0 0 0 0 0 0 0 0 0 0 0 0 0 0 0 127 0" result="hardAlpha"/>
<feOffset dx="9" dy="4"/>
<feGaussianBlur stdDeviation="2"/>
<feComposite in2="hardAlpha" operator="out"/>
<feColorMatrix type="matrix" values="0 0 0 0 0 0 0 0 0 0 0 0 0 0 0 0 0 0 0.25 0"/>
<feBlend mode="normal" in2="BackgroundImageFix" result="effect1_dropShadow_257_31"/>
<feBlend mode="normal" in="SourceGraphic" in2="effect1_dropShadow_257_31" result="shape"/>
</filter>
</defs>
</svg>
